<svg width="594" height="520" viewBox="0 0 594 520" fill="none" xmlns="http://www.w3.org/2000/svg">
<path d="M163.481 158.475C186.874 107.213 210.171 56.3234 233.274 5.34489C235.034 1.46165 236.964 -0.00932518 241.325 0.0117318C278.323 0.190199 315.323 0.148969 352.321 0.00013514C355.668 -0.0133239 357.241 0.976178 358.629 4.02409C400.633 96.2985 442.801 188.498 484.817 280.767C515.977 349.198 546.96 417.709 578.026 486.182C582.96 497.056 587.918 507.918 593.087 519.275C479.087 519.275 365.843 519.275 251.785 519.275C252.885 515.958 253.763 512.846 254.936 509.849C263.06 489.092 277.541 473.611 295.517 461.009C314.323 447.825 334.202 435.885 351.609 421.051C391.61 386.965 411.485 342.722 411.917 290.079C412.031 276.188 409.934 262.534 402.84 249.129C401.395 253.7 400.44 257.629 398.931 261.331C393.595 274.422 388.231 287.506 382.555 300.451C379.199 308.106 373.598 313.627 365.2 315.783C361.695 316.683 359.797 318.757 360.015 322.582C360.109 324.23 359.811 325.903 359.663 327.563C359.114 333.698 357.12 336.089 351.193 337.748C350.551 337.927 349.912 338.122 349.263 338.268C340.778 340.179 340.777 340.177 339.645 349.022C338.716 356.269 335.184 359.442 326.86 360.504C318.527 361.567 318.397 361.539 316.657 369.56C315.175 376.388 311.39 381.305 305.299 384.536C297.501 388.672 289.205 390.923 280.355 390.441C279.063 390.37 276.948 388.804 276.756 387.668C274.711 375.594 274.516 363.481 277.028 351.423C278.709 343.354 283.345 337.148 289.79 332.326C293.158 329.805 293.528 327.232 291.438 323.841C290.57 322.434 289.921 320.881 289.275 319.351C285.3 309.931 287.038 304.536 295.75 299.124C303.445 294.344 303.445 294.344 300.508 285.928C296.846 275.437 298.18 271.554 307.562 265.416C308.399 264.869 309.196 264.206 310.109 263.841C314.679 262.011 315.364 259.102 313.946 254.441C311.068 244.983 313.419 235.921 317.866 227.449C329.551 205.189 346.759 187.695 366.161 172.145C367.424 171.133 368.69 170.124 371.197 168.119C361.71 168.119 353.531 167.152 345.659 168.298C320.8 171.92 298.711 182.808 277.993 196.484C225.652 231.032 190.025 279.142 165.714 336.227C151.077 370.595 141.123 406.26 137.165 443.49C134.674 466.933 134.645 490.38 137.204 513.824C137.384 515.471 137.483 517.126 137.652 519.166C91.8744 519.166 46.3017 519.166 0 519.166C0.674652 517.48 1.24649 515.869 1.95041 514.318C26.9221 459.298 51.9094 404.285 76.8877 349.267C105.708 285.788 134.521 222.305 163.481 158.475Z" fill="url(#paint0_linear_63_44)"/>
<defs>
<linearGradient id="paint0_linear_63_44" x1="383.5" y1="54.5" x2="163" y2="556" gradientUnits="userSpaceOnUse">
<stop stop-color="#FBBE80"/>
<stop offset="0.822569" stop-color="#CD2A11"/>
</linearGradient>
</defs>
</svg>
